<?xml version="1.0" standalone="no"?>
<!DOCTYPE svg PUBLIC "-//W3C//DTD SVG 1.1//EN" "http://www.w3.org/Graphics/SVG/1.1/DTD/svg11.dtd" >
<svg xmlns="http://www.w3.org/2000/svg" xmlns:xlink="http://www.w3.org/1999/xlink" version="1.1" viewBox="-10 0 266 256">
   <path fill="currentColor"
d="M165 46q14 -3 24 9q2 3 1 5q-1 1 -4 0q-11 -2 -24 6q-24 11 -62 23q-5 1 -5 0t5 -3q50 -17 62 -30q3 -3 3 -4t-3 -2q-5 0 -4 -2q1 -1 7 -2zM196 120q3 0 5 -4q2 -3 7 -2q16 6 32 16q3 3 0 5q-7 1 -14 -5q-10 -8 -22 -7q-27 3 -48 6q0 21 -1 31q0 12 -1 24h9q5 -1 8 -1
q11 0 14 -5t9 -3l4 2q7 2 10 4q2 1 2 3q-1 1 -3 1q-37 -1 -89 6q-6 1 -16 -1q-1 0 -1 -1q-5 -1 0 -2q18 1 50 -2q-10 -17 -7 -22q7 -15 7 -33q-7 2 -12 3q-32 5 -49 10q-9 2 -17 -5q-2 23 -1 46q-2 11 16 23q2 1 0 6q-2 2 -4 1q-6 -1 -9 -5q-6 -5 -14 -14q-4 -1 8 -11
q-1 -26 -1 -51q1 -25 3 -56q-18 29 -48 50q-5 3 -1 -2q50 -48 61 -98q0 -4 2 0q6 18 3 19q-10 15 -12 39q-3 24 -3 51q10 3 26 0q10 -2 28 -4q16 -3 24 -5q-2 -21 -12 -36q-6 -7 2 -2q16 14 14 18q1 11 1 19q19 -3 40 -6z" />
</svg>
