<?xml version="1.0" standalone="no"?>
<!DOCTYPE svg PUBLIC "-//W3C//DTD SVG 1.1//EN" "http://www.w3.org/Graphics/SVG/1.1/DTD/svg11.dtd" >
<svg xmlns="http://www.w3.org/2000/svg" xmlns:xlink="http://www.w3.org/1999/xlink" version="1.1" viewBox="-10 0 266 256">
	<g transform="matrix(1 0 0 -1 0 204)">
	<path fill="currentColor"
d="M163 188Q164 187 169 183Q178 178 183 176Q194 167 178 154Q176 153 175 152Q168 149 162 145Q172 140 175 134Q178 129 179 108Q191 100 193 92Q193 79 184 70Q171 54 169 44Q189 47 200 42Q210 39 210 25Q209 12 194 17Q175 26 135 14Q121 11 119 24Q119 44 127 47Q127 46 128 47Q129 48 130 48Q116 53 111 62Q107 72 116 84Q130 101 158 107Q158 133 151 128Q136 128 126 127Q119 124 120 132Q118 154 124 153Q133 155 150 170Q158 178 154 183Q151 183 151 185Q151 186 154 187Q160 189 163 188ZM156 77Q140 70 130 75Q125 77 124 74Q119 57 140 56Q156 69 156 77ZM79 185Q83 182 87 179Q92 176 98 172Q106 161 97 146Q82 131 66 113Q80 101 78 90Q77 86 76 76Q76 67 76 63Q76 58 76 58Q77 58 79 63Q79 64 80 66Q89 86 99 106Q104 113 101 105Q100 102 98 98Q79 54 80 49Q80 30 79 23Q79 14 79 6Q78 -9 71 -3Q54 16 57 31Q59 43 60 57Q61 71 62 84Q61 96 55 102Q48 95 39 88Q30 84 29 95Q32 119 40 122Q51 130 70 157Q77 172 74 182Q72 185 73 186Q74 187 79 185Z" />
	</g>
</svg>