<?xml version="1.0" encoding="UTF-8" standalone="no"?>
<!-- Created with Inkscape (http://www.inkscape.org/) -->

<svg
   width="210mm"
   height="297mm"
   viewBox="0 0 210 297"
   version="1.1"
   id="svg174"
   inkscape:version="1.1 (c68e22c387, 2021-05-23)"
   sodipodi:docname="JEN.svg"
   xmlns:inkscape="http://www.inkscape.org/namespaces/inkscape"
   xmlns:sodipodi="http://sodipodi.sourceforge.net/DTD/sodipodi-0.dtd"
   xmlns="http://www.w3.org/2000/svg"
   xmlns:svg="http://www.w3.org/2000/svg">
  <sodipodi:namedview
     id="namedview176"
     pagecolor="#ffffff"
     bordercolor="#666666"
     borderopacity="1.0"
     inkscape:pageshadow="2"
     inkscape:pageopacity="0.0"
     inkscape:pagecheckerboard="0"
     inkscape:document-units="mm"
     showgrid="false"
     inkscape:zoom="0.70377385"
     inkscape:cx="397.14462"
     inkscape:cy="556.28665"
     inkscape:window-width="1920"
     inkscape:window-height="986"
     inkscape:window-x="-11"
     inkscape:window-y="-11"
     inkscape:window-maximized="1"
     inkscape:current-layer="layer1" />
  <defs
     id="defs171" />
  <g
     inkscape:label="圖層 1"
     inkscape:groupmode="layer"
     id="layer1">
    <path
       style="fill:#000000;fill-opacity:1;fill-rule:nonzero;stroke:none;stroke-width:0.264583"
       id="path223"
       d="m 71.810673,66.290149 c 0.484682,-0.281458 1.947473,-1.110215 1.454049,-0.844375 -4.587798,2.471748 -3.069389,1.865516 -8.382968,4.445323 -6.245886,3.032456 -12.631346,5.786853 -18.975652,8.604289 -6.576716,2.900321 -3.45454,1.535534 -9.3639,4.100362 0,0 -2.780454,2.200815 -2.780454,2.200815 v 0 c 6.019213,-2.653297 2.844139,-1.246722 9.523378,-4.223877 10.894941,-4.859301 21.967251,-9.449073 32.161229,-15.705077 0,0 -3.635682,1.42254 -3.635682,1.42254 z" />
    <path
       style="fill:#000000;fill-opacity:1;fill-rule:nonzero;stroke:none;stroke-width:0.264583"
       id="path225"
       d="m 56.513848,78.881109 c 0.213643,8.167145 0.100005,16.354896 -0.342146,24.513551 -0.139292,2.57023 -0.351663,5.13597 -0.527497,7.70396 -1.096867,12.06905 -2.875539,24.08909 -5.408165,35.94191 0,0 3.336462,-1.62322 3.336462,-1.62322 v 0 c 1.88572,-11.88858 4.037676,-23.75262 4.966822,-35.76867 0.180652,-2.57357 0.390924,-5.14523 0.541962,-7.72071 0.321273,-5.478369 0.388546,-8.996655 0.601715,-14.421253 0.07178,-1.826668 0.174786,-3.652092 0.236874,-5.479114 0.05592,-1.645547 0.02833,-3.293305 0.110579,-4.938254 0,0 -3.516606,1.7918 -3.516606,1.7918 z" />
    <path
       style="fill:#000000;fill-opacity:1;fill-rule:nonzero;stroke:none;stroke-width:0.264583"
       id="path227"
       d="m 138.38888,66.425513 c -1.00547,0.269698 -2.00439,0.565137 -3.01641,0.809093 -6.90533,1.664584 -13.91392,2.871965 -20.89447,4.166264 -10.59964,1.96533 -5.78341,1.080437 -15.786277,2.901283 0,0 -2.59574,1.959372 -2.59574,1.959372 v 0 c 4.580037,-0.858919 11.353147,-2.134626 15.856487,-2.955242 7.79871,-1.421109 15.65096,-2.631683 23.35698,-4.512344 0,0 3.07943,-2.368426 3.07943,-2.368426 z" />
    <path
       style="fill:#000000;fill-opacity:1;fill-rule:nonzero;stroke:none;stroke-width:0.264583"
       id="path229"
       d="m 86.504467,100.07935 c 1.287208,-0.165483 2.570281,-0.367148 3.861628,-0.496445 15.326715,-1.534615 30.716875,-2.134639 46.115275,-2.184376 3.56967,-0.01154 7.13925,0.04372 10.70888,0.06558 10.52539,0.149257 5.64112,0.0992 14.65263,0.165635 0,0 2.73453,-1.988182 2.73453,-1.988182 v 0 c -9.24972,0.1286 -4.24636,0.08666 -15.01031,0.09627 -8.24022,0.02241 -15.03163,0.0031 -23.3404,0.194 -10.15917,0.23336 -14.60106,0.480989 -24.5523,1.011817 -2.800925,0.14941 -5.60318,0.280241 -8.401241,0.476062 -1.244949,0.08713 -2.483596,0.248409 -3.725394,0.372615 0,0 -3.043298,2.287014 -3.043298,2.287014 z" />
    <path
       style="fill:#000000;fill-opacity:1;fill-rule:nonzero;stroke:none;stroke-width:0.264583"
       id="path231"
       d="m 120.0381,78.244868 c 2.44706,6.437935 4.37574,13.079188 5.76705,19.825309 0.48125,2.333463 0.85989,4.686913 1.28984,7.030363 1.32443,8.84773 0.73451,4.54985 1.78812,12.89109 0,0 3.00827,-1.58316 3.00827,-1.58316 v 0 c -1.15712,-8.30508 -0.53137,-4.01965 -1.88873,-12.85461 -0.40813,-2.36097 -0.76553,-4.731272 -1.22439,-7.082904 -1.32827,-6.807314 -3.14023,-13.521465 -5.32349,-20.1017 0,0 -3.41667,1.875612 -3.41667,1.875612 z" />
    <path
       style="fill:#000000;fill-opacity:1;fill-rule:nonzero;stroke:none;stroke-width:0.264583"
       id="path233"
       d="m 104.53623,131.39328 c 8.2753,2.59453 16.94507,3.59832 25.52297,4.65621 2.45543,0.26518 4.91107,0.52845 7.36678,0.7911 0,0 3.10315,-2.20878 3.10315,-2.20878 v 0 c -2.50371,-0.22134 -5.00635,-0.45392 -7.5095,-0.68148 -8.50714,-0.92256 -17.13555,-1.84831 -25.25779,-4.67939 0,0 -3.22561,2.12234 -3.22561,2.12234 z" />
  </g>
</svg>
