<?xml version="1.0" encoding="UTF-8" standalone="no"?>
<!-- Created with Inkscape (http://www.inkscape.org/) -->

<svg
   width="210mm"
   height="297mm"
   viewBox="0 0 210 297"
   version="1.1"
   id="svg5"
   inkscape:version="1.1 (c68e22c387, 2021-05-23)"
   sodipodi:docname="LIN.svg"
   xmlns:inkscape="http://www.inkscape.org/namespaces/inkscape"
   xmlns:sodipodi="http://sodipodi.sourceforge.net/DTD/sodipodi-0.dtd"
   xmlns="http://www.w3.org/2000/svg"
   xmlns:svg="http://www.w3.org/2000/svg">
  <sodipodi:namedview
     id="namedview7"
     pagecolor="#ffffff"
     bordercolor="#666666"
     borderopacity="1.0"
     inkscape:pageshadow="2"
     inkscape:pageopacity="0.0"
     inkscape:pagecheckerboard="0"
     inkscape:document-units="mm"
     showgrid="false"
     inkscape:zoom="0.70377385"
     inkscape:cx="397.14462"
     inkscape:cy="556.28665"
     inkscape:window-width="1920"
     inkscape:window-height="986"
     inkscape:window-x="-11"
     inkscape:window-y="-11"
     inkscape:window-maximized="1"
     inkscape:current-layer="layer1" />
  <defs
     id="defs2" />
  <g
     inkscape:label="圖層 1"
     inkscape:groupmode="layer"
     id="layer1">
    <path
       style="fill:#000000;fill-opacity:1;fill-rule:nonzero;stroke:none;stroke-width:0.264583"
       id="path42"
       d="m 28.002902,94.152883 c 4.849915,0.953735 9.77747,1.399206 14.684356,1.939393 10.357239,1.140201 -1.130546,-0.0704 9.658583,1.050951 4.581485,0.43882 9.169654,0.796497 13.759568,1.132301 0,0 2.924742,-2.094564 2.924742,-2.094564 v 0 C 64.417389,95.886806 59.80481,95.580614 55.205674,95.111011 47.821378,94.320666 52.732146,94.85713 45.565811,94.048333 40.771984,93.507297 35.943632,93.055931 31.242402,91.925864 c 0,0 -3.2395,2.227019 -3.2395,2.227019 z" />
    <path
       style="fill:#000000;fill-opacity:1;fill-rule:nonzero;stroke:none;stroke-width:0.264583"
       id="path44"
       d="m 54.632126,78.461194 c 0.523783,4.530024 0.318538,9.081098 0.07868,13.620745 -0.229632,3.940177 -0.735491,7.844086 -1.832824,11.641621 -0.683789,2.36639 -1.099987,3.34278 -1.972281,5.68448 -2.217692,6.47589 -3.993459,13.09371 -5.133382,19.84636 -0.213709,1.26597 -0.373571,2.54045 -0.560356,3.81067 -0.135215,1.16484 -0.285255,2.32806 -0.405646,3.49453 -0.258273,2.50242 -0.354997,3.64891 -0.361836,6.14309 -0.0075,2.73789 0.223734,5.44848 0.492702,8.16946 0.339709,3.6601 1.095404,7.26968 1.464691,10.92449 -0.063,0.0875 -0.12599,0.17508 -0.188982,0.26261 0,0 3.593164,-1.67737 3.593164,-1.67737 v 0 c 0.01603,-0.1325 0.03208,-0.265 0.04812,-0.39751 -0.519589,-3.61759 -1.2276,-7.20844 -1.593461,-10.84825 -0.233788,-2.24027 -0.34073,-2.95414 -0.442222,-5.24642 -0.183975,-4.15525 0.09344,-8.30152 0.643692,-12.42181 0.500906,-3.4597 0.569772,-4.28027 1.280138,-7.7524 1.103789,-5.3951 2.664691,-10.67737 4.508744,-15.8641 1.060511,-2.83586 2.077201,-5.65984 2.713667,-8.628792 0.436819,-2.037654 0.597339,-3.642119 0.792996,-5.71582 0.09694,-1.027451 0.170124,-2.057005 0.255188,-3.085507 0.240943,-4.583081 0.432501,-9.167386 0.139758,-13.753888 0,0 -3.520554,1.793811 -3.520554,1.793811 z" />
    <path
       style="fill:#000000;fill-opacity:1;fill-rule:nonzero;stroke:none;stroke-width:0.264583"
       id="path46"
       d="m 51.625065,101.50672 c -0.197355,0.23829 -0.386603,0.48354 -0.592068,0.71487 -1.896682,2.1355 -0.279882,0.14443 -2.553341,2.90494 -2.071631,2.51545 -4.00182,5.13028 -5.931355,7.75489 -2.571387,3.47031 -5.189815,6.90453 -7.803861,10.3426 0,0 3.443806,-1.48348 3.443806,-1.48348 v 0 c 2.560442,-3.44126 5.136401,-6.87098 7.707532,-10.30427 2.959396,-3.97494 5.935374,-7.88497 9.371094,-11.466515 0,0 -3.641807,1.536965 -3.641807,1.536965 z" />
    <path
       style="fill:#000000;fill-opacity:1;fill-rule:nonzero;stroke:none;stroke-width:0.264583"
       id="path48"
       d="m 55.059802,104.47132 c 2.143273,2.73382 3.614557,5.89864 5.072282,9.02877 1.433525,3.27026 2.910723,6.52094 4.356854,9.78555 0,0 3.386386,-1.91135 3.386386,-1.91135 v 0 c -1.503826,-3.2347 -3.058414,-6.44578 -4.473308,-9.72134 -1.434592,-3.18303 -2.894169,-6.36652 -4.957487,-9.20462 0,0 -3.384727,2.02299 -3.384727,2.02299 z" />
    <path
       style="fill:#000000;fill-opacity:1;fill-rule:nonzero;stroke:none;stroke-width:0.264583"
       id="path50"
       d="m 95.419988,95.892653 c 7.325452,-0.410816 14.542932,-1.851496 21.770832,-3.033046 4.58905,-0.758782 9.20962,-1.300982 13.82533,-1.864931 0,0 2.79449,-2.082078 2.79449,-2.082078 v 0 c -4.59033,0.54769 -9.1982,0.999586 -13.75478,1.793121 -7.11568,1.180759 -14.23332,2.636081 -21.460792,2.880106 0,0 -3.17508,2.306828 -3.17508,2.306828 z" />
    <path
       style="fill:#000000;fill-opacity:1;fill-rule:nonzero;stroke:none;stroke-width:0.264583"
       id="path52"
       d="m 117.79359,75.497565 c 0.0469,2.593321 0.0414,5.187182 0.0422,7.780813 0.0485,3.302117 -0.1054,6.601333 -0.2211,9.900433 -0.13925,3.737129 -0.45556,7.463589 -0.92685,11.172659 -0.77539,7.59451 -0.68824,15.24557 -0.45097,22.86512 0.29465,6.98859 1.16205,13.93089 2.16911,20.84663 0.22972,1.7447 0.51729,3.48639 0.66393,5.24139 0.0868,1.03823 0.10859,0.76341 -0.0185,1.4318 0,0 3.54346,-1.77235 3.54346,-1.77235 v 0 c -0.0782,-2.23847 -0.56693,-4.4448 -0.86741,-6.65775 -1.11788,-6.85856 -2.01777,-13.75907 -2.34036,-20.70654 -0.21241,-7.64354 -0.23665,-15.32403 0.70028,-22.92644 0.47764,-3.727176 0.81721,-7.466583 0.94883,-11.223536 0.10431,-3.306136 0.27997,-6.611382 0.23181,-9.920216 8e-4,-2.607966 -0.004,-5.216152 0.0422,-7.823814 0,0 -3.51661,1.791801 -3.51661,1.791801 z" />
    <path
       style="fill:#000000;fill-opacity:1;fill-rule:nonzero;stroke:none;stroke-width:0.264583"
       id="path54"
       d="m 112.81409,98.90613 c -2.60558,2.21157 -4.97439,4.68274 -7.35942,7.12585 -2.79834,3.10653 -5.795504,6.01874 -8.769344,8.95401 0,0 3.550194,-1.46903 3.550194,-1.46903 v 0 c 2.94293,-2.93893 5.9051,-5.85841 8.70746,-8.93392 2.43233,-2.47023 4.8658,-4.944604 7.51448,-7.18604 0,0 -3.64337,1.50913 -3.64337,1.50913 z" />
    <path
       style="fill:#000000;fill-opacity:1;fill-rule:nonzero;stroke:none;stroke-width:0.264583"
       id="path56"
       d="m 120.05001,100.29018 c 0.22753,0.28546 0.46601,0.56252 0.68258,0.85639 1.67839,2.27746 3.20887,4.6471 4.93015,6.89684 1.69957,2.22136 3.59571,4.52653 5.35796,6.69827 2.07416,2.5185 4.06004,5.10629 6.02217,7.71213 0,0 3.21215,-1.91186 3.21215,-1.91186 v 0 c -2.02509,-2.56999 -4.07665,-5.1184 -6.16361,-7.63862 -2.16938,-2.66944 -3.25315,-3.93982 -5.29836,-6.70993 -1.68499,-2.28221 -3.14229,-4.67985 -4.71401,-7.034198 -0.20255,-0.303419 -0.42412,-0.593704 -0.63618,-0.890559 0,0 -3.39285,2.021537 -3.39285,2.021537 z" />
  </g>
</svg>
