<?xml version="1.0" standalone="no"?>
<!DOCTYPE svg PUBLIC "-//W3C//DTD SVG 1.1//EN" "http://www.w3.org/Graphics/SVG/1.1/DTD/svg11.dtd" >
<svg xmlns="http://www.w3.org/2000/svg" xmlns:xlink="http://www.w3.org/1999/xlink" version="1.1" viewBox="-10 0 266 256">
	<g transform="matrix(1 0 0 -1 0 204)">
	<path fill="currentColor"
d="M163 192Q171 193 184 182Q190 177 190 168Q189 159 187 143Q201 146 213 144Q221 133 215 127Q202 123 185 115Q181 103 180 75Q209 63 232 50Q241 46 244 26Q245 18 238 19Q225 25 214 34Q199 45 180 56Q183 3 174 -10Q172 -15 169 -15Q166 -16 163 -11Q157 -2 147 2Q134 13 119 36Q102 31 105 50Q106 53 107 53Q109 53 108 50Q108 45 116 50Q122 53 130 66Q125 65 119 62Q116 61 118 64Q120 65 123 67Q127 70 135 75Q136 78 141 87Q145 94 145 94Q139 93 135 94Q129 96 125 93Q115 86 97 70Q93 68 92 58Q89 43 91 27Q93 11 92 -6Q91 -9 89 -10Q88 -10 86 -8Q69 8 77 44Q67 22 56 24Q52 24 49 36Q49 44 45 51Q44 58 54 61Q63 63 79 85Q81 87 83 105Q81 103 76 100Q61 87 53 83Q45 76 38 83Q38 83 37 84Q21 97 16 103Q14 110 23 110Q42 109 85 133Q93 173 90 183Q89 188 90 188Q91 189 95 186Q103 181 110 173Q118 166 114 156Q113 154 112 150Q111 146 110 144Q116 146 120 134Q122 128 117 124Q115 123 111 121Q108 120 106 119Q103 111 103 106Q105 100 103 94Q125 109 137 114Q138 115 141 116Q159 124 166 132Q168 151 169 166Q170 177 160 180Q156 187 163 192ZM166 96Q160 91 154 79Q160 79 165 79Q165 90 166 96ZM146 65Q132 44 121 37Q143 18 155 18Q164 17 163 24Q164 36 164 63Q154 66 146 65Z" />
  </g>

</svg>
