<?xml version="1.0" standalone="no"?>
<!DOCTYPE svg PUBLIC "-//W3C//DTD SVG 1.1//EN" "http://www.w3.org/Graphics/SVG/1.1/DTD/svg11.dtd" >
<svg xmlns="http://www.w3.org/2000/svg" xmlns:xlink="http://www.w3.org/1999/xlink" version="1.1" viewBox="-10 0 266 256">
	<g transform="matrix(1 0 0 -1 0 204)">
	<path fill="currentColor"
d="M84 191Q97 184 109 172Q114 166 111 161Q109 155 108 152Q107 149 108 145Q108 145 109 145Q115 147 120 144Q124 142 124 135Q125 128 114 125Q111 123 110 123Q108 122 104 120Q101 107 103 101Q103 98 104 98Q105 98 107 100Q132 121 138 142Q146 162 145 174Q145 177 148 179Q150 181 155 178Q160 172 168 168Q178 160 182 153Q186 144 181 140Q173 131 167 125Q157 116 147 104Q142 101 148 94Q163 116 183 121Q203 121 214 105Q218 98 217 89Q215 85 215 69Q216 18 200 -9Q198 -11 197 -12Q195 -12 194 -10Q193 -8 189 -2Q185 1 185 3Q180 15 177 18Q167 17 159 12Q147 3 145 12Q128 43 132 78Q133 94 130 98Q127 102 130 111Q132 119 137 124Q141 126 154 145Q163 157 151 170Q149 172 148 168Q137 118 111 87Q110 85 106 81Q100 74 98 71Q93 64 94 60Q92 48 92 37Q92 27 93 21Q94 10 93 5Q91 -2 92 -10Q91 -14 90 -15Q89 -17 87 -15Q72 4 77 24Q78 37 79 51Q77 48 75 47Q65 35 58 31Q51 27 50 35Q47 43 50 50Q50 51 50 53Q51 57 52 59Q51 62 56 63Q61 61 71 71Q80 77 82 104Q79 101 73 96Q63 88 51 80Q42 74 33 79Q20 84 10 103Q9 104 9 105Q9 106 12 106Q25 104 50 115Q78 129 86 137Q86 138 87 145Q87 156 89 163Q91 175 83 186Q80 192 84 191ZM182 97Q177 93 170 92Q160 90 156 88Q151 85 153 71Q155 71 166 74Q178 80 191 72Q190 83 189 92Q186 100 182 97ZM192 58Q187 55 179 54Q174 52 168 50Q162 48 161 48Q156 45 153 45Q152 36 154 36Q154 34 161 36Q185 37 187 34Q191 31 191 39Q192 47 192 58Z" />
	</g>
</svg>