<?xml version="1.0" encoding="UTF-8" standalone="no"?>
<!-- Created with Inkscape (http://www.inkscape.org/) -->

<svg
   width="210mm"
   height="297mm"
   viewBox="0 0 210 297"
   version="1.1"
   id="svg73"
   inkscape:version="1.1 (c68e22c387, 2021-05-23)"
   sodipodi:docname="PO.svg"
   xmlns:inkscape="http://www.inkscape.org/namespaces/inkscape"
   xmlns:sodipodi="http://sodipodi.sourceforge.net/DTD/sodipodi-0.dtd"
   xmlns="http://www.w3.org/2000/svg"
   xmlns:svg="http://www.w3.org/2000/svg">
  <sodipodi:namedview
     id="namedview75"
     pagecolor="#ffffff"
     bordercolor="#666666"
     borderopacity="1.0"
     inkscape:pageshadow="2"
     inkscape:pageopacity="0.0"
     inkscape:pagecheckerboard="0"
     inkscape:document-units="mm"
     showgrid="false"
     inkscape:zoom="0.70377385"
     inkscape:cx="397.14462"
     inkscape:cy="556.28665"
     inkscape:window-width="1920"
     inkscape:window-height="986"
     inkscape:window-x="-11"
     inkscape:window-y="-11"
     inkscape:window-maximized="1"
     inkscape:current-layer="layer1" />
  <defs
     id="defs70" />
  <g
     inkscape:label="圖層 1"
     inkscape:groupmode="layer"
     id="layer1">
    <path
       style="fill:#000000;fill-opacity:1;fill-rule:nonzero;stroke:none;stroke-width:0.264583"
       id="path143"
       d="m 34.562954,89.124262 c 1.972607,-0.02935 2.193761,-0.03529 4.440098,-0.05373 1.162565,-0.0096 2.32528,-0.04119 3.487742,-0.02294 4.560462,0.07157 9.109361,0.437211 13.657911,0.743654 4.100422,0.293113 8.202051,0.565891 12.315055,0.551855 2.34592,-0.008 3.747198,-0.09538 6.038135,-0.201928 0,0 3.002405,-2.205691 3.002405,-2.205691 v 0 c -2.230472,0.131847 -3.83431,0.249727 -6.105208,0.279162 -4.130415,0.05354 -8.253169,-0.19748 -12.371342,-0.485497 -4.520068,-0.308713 -9.046763,-0.6951 -13.57653,-0.83243 -1.141029,-0.03459 -2.283071,-0.01336 -3.424584,-0.02294 -2.190562,-0.01839 -2.379374,-0.02405 -4.29219,-0.05373 0,0 -3.171492,2.304225 -3.171492,2.304225 z" />
    <path
       style="fill:#000000;fill-opacity:1;fill-rule:nonzero;stroke:none;stroke-width:0.264583"
       id="path145"
       d="m 59.533292,73.881601 c 0.176932,6.567987 0.01855,13.138909 -0.263681,19.701197 -0.421135,7.923582 -0.863751,15.862002 -1.829565,23.742462 -0.17163,1.4004 -0.394308,2.79407 -0.59146,4.19111 -1.406427,8.61736 -3.665035,17.0763 -6.139159,25.44157 -0.892879,2.86512 -1.788147,5.73118 -2.75609,8.57215 -0.69092,2.02788 -0.361032,1.3373 -1.166344,2.7144 0,0 3.556661,-1.60235 3.556661,-1.60235 v 0 c 0.649483,-1.42328 0.354526,-0.68765 1.000601,-2.70861 0.906375,-2.83518 1.797143,-5.67589 2.641545,-8.53019 2.382932,-8.39484 4.663551,-16.8498 6.077034,-25.46918 0.191521,-1.39908 0.409155,-2.79484 0.574569,-4.19726 0.930373,-7.88788 1.293114,-15.831446 1.805594,-23.752693 0.324382,-6.623452 0.480009,-13.251936 0.583202,-19.882331 0,0 -3.492907,1.779725 -3.492907,1.779725 z" />
    <path
       style="fill:#000000;fill-opacity:1;fill-rule:nonzero;stroke:none;stroke-width:0.264583"
       id="path147"
       d="m 59.306282,100.52984 c -2.132341,3.97166 -4.456726,7.83878 -6.911872,11.61819 -1.751007,2.41115 -3.275814,4.99546 -5.111094,7.34621 -0.879395,1.12639 -1.128318,1.34545 -2.069081,2.33831 0,0 3.560083,-1.4905 3.560083,-1.4905 v 0 c 0.886145,-0.97783 1.187585,-1.27155 2.01981,-2.36844 1.788105,-2.35676 3.283635,-4.92901 5.015982,-7.32532 2.487644,-3.84676 4.846137,-7.77974 7.08334,-11.777466 0,0 -3.587168,1.659016 -3.587168,1.659016 z" />
    <path
       style="fill:#000000;fill-opacity:1;fill-rule:nonzero;stroke:none;stroke-width:0.264583"
       id="path149"
       d="m 60.799299,100.38913 c 4.027091,3.85567 7.966909,7.79334 11.747347,11.89238 0.689221,0.79087 1.378444,1.58175 2.067665,2.37263 0,0 3.157551,-1.90761 3.157551,-1.90761 v 0 c -0.700812,-0.78699 -1.401627,-1.57398 -2.102442,-2.36097 -2.238685,-2.43586 -2.485787,-2.73474 -4.773314,-5.10498 -1.893295,-1.96174 -3.868351,-3.84679 -5.743871,-5.825331 -0.340164,-0.358846 -0.659231,-0.737118 -0.988843,-1.105678 0,0 -3.364093,2.039559 -3.364093,2.039559 z" />
    <path
       style="fill:#000000;fill-opacity:1;fill-rule:nonzero;stroke:none;stroke-width:0.264583"
       id="path151"
       d="m 117.80231,78.073892 c -6.0027,1.806567 -11.83324,4.135337 -17.54287,6.713416 -1.550496,0.700098 -3.126828,1.354428 -4.616728,2.175626 -2.325897,1.28198 -4.543967,2.750532 -6.81595,4.125796 -2.103842,2.46402 -3.599063,3.683778 -4.573082,6.865006 -0.929793,3.036784 -0.780836,6.950144 -0.589544,10.013164 0.20706,3.31549 1.094348,10.12302 1.482846,13.29543 1.143744,9.32012 2.313734,18.63791 3.310771,27.97516 0.150458,0.29367 0.300913,0.58733 0.451371,0.88099 0,0 3.380746,-1.96527 3.380746,-1.96527 v 0 c -0.167638,-0.22139 -0.335278,-0.44277 -0.502918,-0.66416 -1.311306,-9.24393 -2.55085,-18.49813 -3.711839,-27.76215 -0.395415,-3.50099 -1.163172,-9.71793 -1.328526,-13.33447 -0.14219,-3.10995 -0.202798,-6.874022 0.792559,-9.923218 1.035344,-3.171701 2.442171,-4.233198 4.604285,-6.668691 2.015789,-1.738458 0.723011,-0.740886 5.418672,-2.879045 5.565557,-2.534263 11.257497,-4.836683 17.159367,-6.467056 0,0 3.08084,-2.380528 3.08084,-2.380528 z" />
    <path
       style="fill:#000000;fill-opacity:1;fill-rule:nonzero;stroke:none;stroke-width:0.264583"
       id="path153"
       d="m 87.124507,99.171476 c 7.215767,-1.617568 14.480573,-3.07757 21.817403,-4.037 1.19951,-0.156858 2.40612,-0.253449 3.60919,-0.380174 0.91288,0.150389 1.88135,0.103275 2.73863,0.45117 2.21907,0.900531 3.18437,2.806121 4.16551,4.872238 2.37562,5.00273 3.38379,10.51044 4.51423,15.88061 1.44998,7.13878 2.41548,14.36062 3.37336,21.57774 0,0 3.30065,-1.74306 3.30065,-1.74306 v 0 c -1.16135,-7.15923 -2.24309,-14.33329 -3.66343,-21.44758 -1.1234,-5.41884 -2.11968,-10.98221 -4.39892,-16.072784 -0.99466,-2.221513 -1.89429,-4.213088 -4.24605,-5.203592 -0.89236,-0.375841 -1.90935,-0.323472 -2.86402,-0.485206 -1.22862,0.139223 -2.46085,0.249578 -3.68585,0.417671 -7.22118,0.99088 -14.373817,2.421908 -21.526375,3.802761 0,0 -3.134328,2.367206 -3.134328,2.367206 z" />
    <path
       style="fill:#000000;fill-opacity:1;fill-rule:nonzero;stroke:none;stroke-width:0.264583"
       id="path155"
       d="m 95.355716,125.35384 c 5.793584,-1.44265 11.683244,-2.44222 17.583894,-3.32455 0,0 2.8374,-2.12551 2.8374,-2.12551 v 0 c -5.80826,0.8406 -11.5978,1.81411 -17.329929,3.08122 0,0 -3.091365,2.36884 -3.091365,2.36884 z" />
    <path
       style="fill:#000000;fill-opacity:1;fill-rule:nonzero;stroke:none;stroke-width:0.264583"
       id="path157"
       d="m 98.926215,145.60434 c 7.269915,-2.15077 14.615475,-4.0394 21.948625,-5.96134 0,0 2.91598,-2.2362 2.91598,-2.2362 v 0 c -7.2632,1.94428 -14.53227,3.86628 -21.78739,5.84028 0,0 -3.077215,2.35726 -3.077215,2.35726 z" />
  </g>
</svg>
